<svg width="995" height="879" viewBox="0 0 995 879" fill="none" xmlns="http://www.w3.org/2000/svg">
<path fill-rule="evenodd" clip-rule="evenodd" d="M40.4624 0.0128708C45.8525 -0.00419419 51.2037 -0.00438577 56.5169 0.0128708H40.4624ZM850.575 0.015605V0.0128708H56.5169C56.784 0.0137381 57.0509 0.0146494 57.3177 0.015605H0V150.636C280.407 134.604 405.223 189.489 603.448 335.477C771.369 504.805 839.901 615.045 850.575 878.626H721.264C714.257 674.974 672.688 574.516 528.736 420.789C356.021 274.413 241.808 231.763 0 244.479V878.628H994.22V0.015605H850.575ZM850.575 0.015605V386.664C588.778 76.9106 403.769 1.25616 57.3177 0.015605H850.575ZM152.299 878.626V386.664C271.328 419.067 338.435 444.279 448.276 557.287C543.358 660.157 566.078 733.276 577.586 878.626H152.299Z" fill="url(#paint0_linear_1101_1412)"/>
<defs>
<linearGradient id="paint0_linear_1101_1412" x1="437.246" y1="1.39496e-05" x2="557.148" y2="878.604" gradientUnits="userSpaceOnUse">
<stop stop-color="#7AA2F7"/>
<stop offset="0.5" stop-color="#A36AD9"/>
<stop offset="1" stop-color="#4C4F7C"/>
</linearGradient>
</defs>
</svg>
